HIERARCHY
ROOT mixamorig:Hips
{
	OFFSET -0.000008 104.274872 1.554316
	CHANNELS 6 Xposition Yposition Zposition Xrotation Yrotation Zrotation
	JOINT mixamorig:Spine
	{
		OFFSET -0.000005 10.181595 0.131519
		CHANNELS 6 Xposition Yposition Zposition Xrotation Yrotation Zrotation
		JOINT mixamorig:Spine1
		{
			OFFSET -0.000000 9.893959 -1.470707
			CHANNELS 6 Xposition Yposition Zposition Xrotation Yrotation Zrotation
			JOINT mixamorig:Spine2
			{
				OFFSET -0.000000 9.220757 -1.370641
				CHANNELS 6 Xposition Yposition Zposition Xrotation Yrotation Zrotation
				JOINT mixamorig:Neck
				{
					OFFSET 0.000001 16.740417 -2.049036
					CHANNELS 6 Xposition Yposition Zposition Xrotation Yrotation Zrotation
					JOINT mixamorig:Head
					{
						OFFSET 0.000000 9.617874 1.685006
						CHANNELS 6 Xposition Yposition Zposition Xrotation Yrotation Zrotation
						JOINT mixamorig:HeadTop_End
						{
							OFFSET 0.000002 22.037354 7.501101
							CHANNELS 6 Xposition Yposition Zposition Xrotation Yrotation Zrotation
							End Site
							{
								OFFSET 0.000168 2310.654297 -282.823242
							}
						}
					}
				}
				JOINT mixamorig:RightShoulder
				{
					OFFSET -4.569970 11.014908 -2.160885
					CHANNELS 6 Xposition Yposition Zposition Xrotation Yrotation Zrotation
					JOINT mixamorig:RightArm
					{
						OFFSET -10.592851 -0.524811 -2.232101
						CHANNELS 6 Xposition Yposition Zposition Xrotation Yrotation Zrotation
						JOINT mixamorig:RightForeArm
						{
							OFFSET -27.841511 0.000031 -0.000004
							CHANNELS 6 Xposition Yposition Zposition Xrotation Yrotation Zrotation
							JOINT mixamorig:RightHand
							{
								OFFSET -28.328831 -0.000015 0.000015
								CHANNELS 6 Xposition Yposition Zposition Xrotation Yrotation Zrotation
								JOINT mixamorig:RightHandThumb1
								{
									OFFSET -2.464806 -1.573990 2.681852
									CHANNELS 6 Xposition Yposition Zposition Xrotation Yrotation Zrotation
									JOINT mixamorig:RightHandThumb2
									{
										OFFSET -3.215179 -1.872803 1.924282
										CHANNELS 6 Xposition Yposition Zposition Xrotation Yrotation Zrotation
										JOINT mixamorig:RightHandThumb3
										{
											OFFSET -2.654831 -1.527969 1.512609
											CHANNELS 6 Xposition Yposition Zposition Xrotation Yrotation Zrotation
											JOINT mixamorig:RightHandThumb4
											{
												OFFSET -2.018814 -1.152008 1.108052
												CHANNELS 6 Xposition Yposition Zposition Xrotation Yrotation Zrotation
												End Site
												{
													OFFSET -188.809540 -114.533607 132.431396
												}
											}
										}
									}
								}
								JOINT mixamorig:RightHandIndex1
								{
									OFFSET -9.108284 -0.517868 2.259835
									CHANNELS 6 Xposition Yposition Zposition Xrotation Yrotation Zrotation
									JOINT mixamorig:RightHandIndex2
									{
										OFFSET -3.699989 0.000000 0.001215
										CHANNELS 6 Xposition Yposition Zposition Xrotation Yrotation Zrotation
										JOINT mixamorig:RightHandIndex3
										{
											OFFSET -2.850006 0.000031 -0.000522
											CHANNELS 6 Xposition Yposition Zposition Xrotation Yrotation Zrotation
											JOINT mixamorig:RightHandIndex4
											{
												OFFSET -2.772186 -0.000015 -0.000020
												CHANNELS 6 Xposition Yposition Zposition Xrotation Yrotation Zrotation
												End Site
												{
													OFFSET -277.218445 0.000000 -0.050231
												}
											}
										}
									}
								}
								JOINT mixamorig:RightHandMiddle1
								{
									OFFSET -9.532516 -0.000031 -0.000023
									CHANNELS 6 Xposition Yposition Zposition Xrotation Yrotation Zrotation
									JOINT mixamorig:RightHandMiddle2
									{
										OFFSET -3.700005 -0.000015 0.003713
										CHANNELS 6 Xposition Yposition Zposition Xrotation Yrotation Zrotation
										JOINT mixamorig:RightHandMiddle3
										{
											OFFSET -2.949974 0.000015 -0.002054
											CHANNELS 6 Xposition Yposition Zposition Xrotation Yrotation Zrotation
											JOINT mixamorig:RightHandMiddle4
											{
												OFFSET -2.946640 0.000000 -0.000156
												CHANNELS 6 Xposition Yposition Zposition Xrotation Yrotation Zrotation
												End Site
												{
													OFFSET -294.664337 0.000000 -0.113670
												}
											}
										}
									}
								}
								JOINT mixamorig:RightHandRing1
								{
									OFFSET -9.103600 -0.043076 -1.865134
									CHANNELS 6 Xposition Yposition Zposition Xrotation Yrotation Zrotation
									JOINT mixamorig:RightHandRing2
									{
										OFFSET -3.379288 0.000000 -0.001055
										CHANNELS 6 Xposition Yposition Zposition Xrotation Yrotation Zrotation
										JOINT mixamorig:RightHandRing3
										{
											OFFSET -2.889687 -0.000015 0.000379
											CHANNELS 6 Xposition Yposition Zposition Xrotation Yrotation Zrotation
											JOINT mixamorig:RightHandRing4
											{
												OFFSET -2.638809 -0.000015 0.000941
												CHANNELS 6 Xposition Yposition Zposition Xrotation Yrotation Zrotation
												End Site
												{
													OFFSET -263.880371 0.000000 0.516020
												}
											}
										}
									}
								}
								JOINT mixamorig:RightHandPinky1
								{
									OFFSET -8.076683 -0.486710 -3.806280
									CHANNELS 6 Xposition Yposition Zposition Xrotation Yrotation Zrotation
									JOINT mixamorig:RightHandPinky2
									{
										OFFSET -3.600014 -0.000015 -0.003747
										CHANNELS 6 Xposition Yposition Zposition Xrotation Yrotation Zrotation
										JOINT mixamorig:RightHandPinky3
										{
											OFFSET -2.099983 0.000000 -0.005739
											CHANNELS 6 Xposition Yposition Zposition Xrotation Yrotation Zrotation
											JOINT mixamorig:RightHandPinky4
											{
												OFFSET -2.115768 -0.000031 -0.003680
												CHANNELS 6 Xposition Yposition Zposition Xrotation Yrotation Zrotation
												End Site
												{
													OFFSET -211.577087 0.000000 -0.350686
												}
											}
										}
									}
								}
							}
						}
					}
				}
				JOINT mixamorig:LeftShoulder
				{
					OFFSET 4.570447 11.014725 -2.160855
					CHANNELS 6 Xposition Yposition Zposition Xrotation Yrotation Zrotation
					JOINT mixamorig:LeftArm
					{
						OFFSET 10.592371 -0.524597 -2.232119
						CHANNELS 6 Xposition Yposition Zposition Xrotation Yrotation Zrotation
						JOINT mixamorig:LeftForeArm
						{
							OFFSET 27.841532 -0.000031 0.000026
							CHANNELS 6 Xposition Yposition Zposition Xrotation Yrotation Zrotation
							JOINT mixamorig:LeftHand
							{
								OFFSET 28.328846 -0.000061 0.000022
								CHANNELS 6 Xposition Yposition Zposition Xrotation Yrotation Zrotation
								JOINT mixamorig:LeftHandThumb1
								{
									OFFSET 2.466141 -1.576172 2.681732
									CHANNELS 6 Xposition Yposition Zposition Xrotation Yrotation Zrotation
									JOINT mixamorig:LeftHandThumb2
									{
										OFFSET 3.217812 -1.872070 1.916482
										CHANNELS 6 Xposition Yposition Zposition Xrotation Yrotation Zrotation
										JOINT mixamorig:LeftHandThumb3
										{
											OFFSET 2.656029 -1.528778 1.514513
											CHANNELS 6 Xposition Yposition Zposition Xrotation Yrotation Zrotation
											JOINT mixamorig:LeftHandThumb4
											{
												OFFSET 2.020889 -1.154053 1.115139
												CHANNELS 6 Xposition Yposition Zposition Xrotation Yrotation Zrotation
												End Site
												{
													OFFSET 190.885437 -115.081749 130.048782
												}
											}
										}
									}
								}
								JOINT mixamorig:LeftHandIndex1
								{
									OFFSET 9.109314 -0.518021 2.259871
									CHANNELS 6 Xposition Yposition Zposition Xrotation Yrotation Zrotation
									JOINT mixamorig:LeftHandIndex2
									{
										OFFSET 3.699989 0.000000 -0.000322
										CHANNELS 6 Xposition Yposition Zposition Xrotation Yrotation Zrotation
										JOINT mixamorig:LeftHandIndex3
										{
											OFFSET 2.850006 0.000000 0.000352
											CHANNELS 6 Xposition Yposition Zposition Xrotation Yrotation Zrotation
											JOINT mixamorig:LeftHandIndex4
											{
												OFFSET 2.774864 -0.000031 -0.000027
												CHANNELS 6 Xposition Yposition Zposition Xrotation Yrotation Zrotation
												End Site
												{
													OFFSET 277.486267 0.000000 -0.009857
												}
											}
										}
									}
								}
								JOINT mixamorig:LeftHandMiddle1
								{
									OFFSET 9.533394 0.000061 0.000044
									CHANNELS 6 Xposition Yposition Zposition Xrotation Yrotation Zrotation
									JOINT mixamorig:LeftHandMiddle2
									{
										OFFSET 3.699989 -0.000015 -0.000231
										CHANNELS 6 Xposition Yposition Zposition Xrotation Yrotation Zrotation
										JOINT mixamorig:LeftHandMiddle3
										{
											OFFSET 2.949997 -0.000015 -0.000059
											CHANNELS 6 Xposition Yposition Zposition Xrotation Yrotation Zrotation
											JOINT mixamorig:LeftHandMiddle4
											{
												OFFSET 2.952896 0.000031 0.000063
												CHANNELS 6 Xposition Yposition Zposition Xrotation Yrotation Zrotation
												End Site
												{
													OFFSET 295.289337 0.000000 0.022810
												}
											}
										}
									}
								}
								JOINT mixamorig:LeftHandRing1
								{
									OFFSET 9.104523 -0.042999 -1.865074
									CHANNELS 6 Xposition Yposition Zposition Xrotation Yrotation Zrotation
									JOINT mixamorig:LeftHandRing2
									{
										OFFSET 3.150009 -0.000031 0.000043
										CHANNELS 6 Xposition Yposition Zposition Xrotation Yrotation Zrotation
										JOINT mixamorig:LeftHandRing3
										{
											OFFSET 2.949982 -0.000015 0.000040
											CHANNELS 6 Xposition Yposition Zposition Xrotation Yrotation Zrotation
											JOINT mixamorig:LeftHandRing4
											{
												OFFSET 2.644348 0.000000 0.000057
												CHANNELS 6 Xposition Yposition Zposition Xrotation Yrotation Zrotation
												End Site
												{
													OFFSET 264.434631 0.000000 0.012105
												}
											}
										}
									}
								}
								JOINT mixamorig:LeftHandPinky1
								{
									OFFSET 8.077789 -0.486847 -3.806259
									CHANNELS 6 Xposition Yposition Zposition Xrotation Yrotation Zrotation
									JOINT mixamorig:LeftHandPinky2
									{
										OFFSET 3.599953 0.000031 0.014727
										CHANNELS 6 Xposition Yposition Zposition Xrotation Yrotation Zrotation
										JOINT mixamorig:LeftHandPinky3
										{
											OFFSET 2.100021 0.000015 0.007705
											CHANNELS 6 Xposition Yposition Zposition Xrotation Yrotation Zrotation
											JOINT mixamorig:LeftHandPinky4
											{
												OFFSET 2.125504 0.000031 0.007517
												CHANNELS 6 Xposition Yposition Zposition Xrotation Yrotation Zrotation
												End Site
												{
													OFFSET 212.550781 0.000000 0.625752
												}
											}
										}
									}
								}
							}
						}
					}
				}
			}
		}
	}
	JOINT mixamorig:RightUpLeg
	{
		OFFSET -8.207787 -6.751648 -1.599560
		CHANNELS 6 Xposition Yposition Zposition Xrotation Yrotation Zrotation
		JOINT mixamorig:RightLeg
		{
			OFFSET -0.000002 -44.370117 0.345942
			CHANNELS 6 Xposition Yposition Zposition Xrotation Yrotation Zrotation
			JOINT mixamorig:RightFoot
			{
				OFFSET 0.000003 -44.423679 -3.043532
				CHANNELS 6 Xposition Yposition Zposition Xrotation Yrotation Zrotation
				JOINT mixamorig:RightToeBase
				{
					OFFSET -0.000002 -8.728671 10.710558
					CHANNELS 6 Xposition Yposition Zposition Xrotation Yrotation Zrotation
					JOINT mixamorig:RightToe_End
					{
						OFFSET -0.000001 -0.000679 9.278119
						CHANNELS 6 Xposition Yposition Zposition Xrotation Yrotation Zrotation
						End Site
						{
							OFFSET 0.000000 -0.067690 927.812134
						}
					}
				}
			}
		}
	}
	JOINT mixamorig:LeftUpLeg
	{
		OFFSET 8.207793 -6.751686 -1.599556
		CHANNELS 6 Xposition Yposition Zposition Xrotation Yrotation Zrotation
		JOINT mixamorig:LeftLeg
		{
			OFFSET -0.000004 -44.370014 0.346954
			CHANNELS 6 Xposition Yposition Zposition Xrotation Yrotation Zrotation
			JOINT mixamorig:LeftFoot
			{
				OFFSET -0.000001 -44.423672 -3.044401
				CHANNELS 6 Xposition Yposition Zposition Xrotation Yrotation Zrotation
				JOINT mixamorig:LeftToeBase
				{
					OFFSET -0.000002 -8.728669 10.710558
					CHANNELS 6 Xposition Yposition Zposition Xrotation Yrotation Zrotation
					JOINT mixamorig:LeftToe_End
					{
						OFFSET -0.000003 -0.000679 9.278133
						CHANNELS 6 Xposition Yposition Zposition Xrotation Yrotation Zrotation
						End Site
						{
							OFFSET 0.000000 -0.068021 927.813477
						}
					}
				}
			}
		}
	}
}
MOTION
Frames: 3
Frame Time: 0.033333
0.000006 104.270477 1.554256 0.000010 0.000003 -0.000113 -0.000005 10.181587 0.131522 0.000001 -0.000003 0.000084 -0.000000 9.893967 -1.470711 0.000001 0.000000 -0.000000 -0.000000 9.220802 -1.370642 0.000000 -0.000000 -0.000000 0.000001 16.740433 -2.049030 0.000000 -0.000000 -0.000000 0.000000 9.617859 1.685014 0.000000 0.000000 0.000000 0.000002 22.037384 7.501101 0.000000 -0.000000 0.000000 -4.569968 11.014880 -2.160881 0.000008 0.000001 -0.000038 -10.592866 -0.524673 -2.232030 71.545385 5.978867 -4.309653 -27.841528 0.000014 0.000539 -57.528108 117.150899 83.875461 -28.328827 0.000005 0.000022 -0.000316 -0.000045 0.000007 -2.464481 -1.574027 2.682403 -11.033508 -150.905257 57.964086 -3.215232 -1.872530 1.924624 151.974386 35.397281 31.722742 -2.654948 -1.527915 1.513078 151.785573 25.418371 -41.071615 -2.018845 -1.152014 1.108057 -0.000003 -0.000003 0.000000 -9.108374 -0.517577 2.260190 107.441095 19.488244 -26.399986 -3.700082 0.000307 0.001564 104.366677 15.894202 -20.361622 -2.850093 0.000363 -0.000215 103.256122 11.400956 -14.369618 -2.772164 -0.000001 -0.000027 0.000003 -0.000000 0.000000 -9.532600 0.000254 0.000303 106.630147 18.407116 -24.734623 -3.700073 0.000319 0.004034 106.362691 13.729227 -18.143265 -2.950052 0.000331 -0.001754 105.855795 11.420503 -15.069137 -2.946608 0.000013 -0.000154 -0.000000 0.000000 0.000002 -9.103691 -0.042769 -1.864802 106.385107 20.027592 -26.493868 -3.379342 0.000315 -0.000738 106.435821 11.464866 -15.318979 -2.889762 0.000359 0.000701 109.061346 6.956366 -9.816031 -2.638800 -0.000005 0.000938 0.000000 -0.000000 0.000002 -8.076752 -0.486408 -3.805958 99.408137 22.190846 -25.861359 -3.600049 0.000271 -0.003439 104.717216 12.588775 -15.795448 -2.100016 0.000335 -0.005411 106.660617 6.924925 -8.991398 -2.115777 -0.000045 -0.003680 -0.000000 -0.000001 -0.000005 4.570446 11.014691 -2.160851 -0.000018 0.000010 -0.000021 10.592360 -0.524535 -2.232279 69.859229 11.840522 -8.284196 27.841841 0.000107 -0.000220 102.971727 -64.811549 77.151850 28.328823 -0.000028 0.000024 0.000019 -0.000090 0.000000 2.466109 -1.576180 2.681897 -15.993808 149.924333 -48.938422 3.217689 -1.871670 1.916372 150.845233 -34.912519 -31.020274 2.656106 -1.528616 1.514447 145.306879 -26.877679 40.207490 2.020891 -1.154073 1.115147 0.000004 0.000000 0.000003 9.109386 -0.517843 2.259737 90.610656 -14.986695 15.133061 3.700061 0.000166 -0.000475 88.786640 -13.149596 12.892952 2.850044 0.000215 0.000198 86.450360 -11.694666 10.994928 2.774884 -0.000013 -0.000028 -0.000001 -0.000002 0.000001 9.533464 0.000234 -0.000084 92.679144 -13.757720 14.400732 3.700053 0.000195 -0.000376 91.580324 -11.884732 12.211917 2.950062 0.000186 -0.000196 93.240572 -15.498042 16.391631 2.952866 -0.000028 0.000067 0.000001 0.000003 -0.000000 9.104576 -0.042824 -1.865234 91.594490 -12.767936 13.127131 3.150041 0.000226 -0.000102 95.937978 -11.136303 12.347710 2.950023 0.000194 -0.000057 98.792730 -13.362184 15.564661 2.644330 0.000046 0.000061 0.000000 0.000001 -0.000002 8.077844 -0.486708 -3.806395 81.652671 -14.981404 13.464178 3.599995 0.000208 0.014562 83.210549 -12.251394 11.336397 2.100025 0.000206 0.007555 87.432097 -11.461226 11.420110 2.125513 -0.000014 0.007513 -0.000000 0.000002 -0.000001 -8.207786 -6.751667 -1.599560 -0.077001 -0.000003 0.000080 -0.000002 -44.370110 0.345938 0.153719 -0.000000 -0.000000 0.000000 -44.423679 -3.043532 -0.076700 0.000000 -0.000002 -0.000006 -8.728667 10.710559 -0.000009 -0.000000 -0.000000 -0.000001 -0.000679 9.278123 0.000000 -0.000000 -0.000000 8.207792 -6.751710 -1.599556 -0.074518 -0.000003 0.000081 -0.000002 -44.370014 0.346960 0.148822 0.000002 0.000000 -0.000001 -44.423664 -3.044403 -0.074314 0.000000 -0.000002 -0.000004 -8.728671 10.710558 0.000007 -0.000000 -0.000000 0.000000 -0.000680 9.278137 -0.000000 0.000000 -0.000001 
0.000006 104.270477 1.554256 0.000010 0.000003 -0.000113 -0.000005 10.181587 0.131522 0.000001 -0.000003 0.000084 -0.000000 9.893967 -1.470711 0.000001 0.000000 -0.000000 -0.000000 9.220802 -1.370642 0.000000 -0.000000 -0.000000 0.000001 16.740433 -2.049030 0.000000 -0.000000 -0.000000 0.000000 9.617859 1.685014 0.000000 0.000000 0.000000 0.000002 22.037384 7.501101 0.000000 -0.000000 0.000000 -4.569968 11.014880 -2.160881 0.000008 0.000001 -0.000038 -10.592874 -0.524694 -2.232004 71.961985 12.353964 -8.985884 -27.841536 0.000013 0.000546 -56.255794 117.147388 82.363550 -28.328835 0.000021 0.000027 -0.000317 -0.000043 0.000006 -2.464416 -1.573902 2.682379 -32.249315 -151.185486 21.138379 -3.215226 -1.872506 1.924604 149.277254 34.756070 33.830883 -2.654936 -1.527890 1.513075 149.443077 26.645164 -35.314178 -2.018833 -1.152017 1.108064 0.000001 0.000002 0.000002 -9.108403 -0.517570 2.260171 107.633358 18.401044 -25.037131 -3.700074 0.000290 0.001558 103.922640 14.984544 -19.053649 -2.850089 0.000364 -0.000209 103.859850 11.299791 -14.396176 -2.772192 -0.000014 -0.000017 0.000000 0.000000 -0.000001 -9.532617 0.000257 0.000319 105.381220 17.892884 -23.532618 -3.700074 0.000310 0.004037 105.374171 12.634180 -16.404185 -2.950048 0.000340 -0.001744 108.749090 10.932688 -15.202903 -2.946627 0.000001 -0.000158 0.000000 0.000000 0.000001 -9.103724 -0.042777 -1.864801 104.560128 19.894896 -25.493514 -3.379330 0.000324 -0.000766 105.326291 10.083515 -13.217327 -2.889756 0.000341 0.000699 111.217767 6.585078 -9.674948 -2.638814 -0.000002 0.000943 0.000000 -0.000000 -0.000001 -8.076778 -0.486399 -3.805959 98.881106 21.404163 -24.723162 -3.600066 0.000257 -0.003450 102.130337 10.555188 -12.594834 -2.100015 0.000311 -0.005411 106.207058 5.556227 -7.104440 -2.115781 -0.000055 -0.003676 0.000001 0.000001 -0.000007 4.570446 11.014691 -2.160851 -0.000018 0.000010 -0.000021 10.592358 -0.524557 -2.232263 69.269163 16.962208 -11.761363 27.841843 0.000114 -0.000231 103.389345 -66.168892 79.031142 28.328846 -0.000028 0.000028 0.000020 -0.000086 0.000000 2.466209 -1.576082 2.681840 6.678415 163.219555 -94.068131 3.217807 -1.871741 1.916384 165.277614 -31.224787 3.352815 2.656118 -1.528661 1.514468 145.072453 -25.767814 53.650890 2.020887 -1.154083 1.115141 -0.000001 0.000003 0.000004 9.109377 -0.517839 2.259749 92.377134 -19.258886 20.045463 3.700037 0.000192 -0.000465 90.183038 -11.436447 11.489457 2.850035 0.000237 0.000199 89.160784 -8.467633 8.343722 2.774888 -0.000048 -0.000026 0.000000 -0.000002 -0.000000 9.533459 0.000226 -0.000101 92.520896 -17.614353 18.384272 3.700022 0.000199 -0.000369 94.420153 -8.897531 9.605853 2.950050 0.000217 -0.000207 95.625278 -9.635405 10.628781 2.952861 -0.000029 0.000067 -0.000000 0.000003 0.000002 9.104581 -0.042832 -1.865215 92.131022 -16.636280 17.259541 3.150061 0.000223 -0.000098 96.569039 -10.563949 11.843625 2.950017 0.000209 -0.000074 98.213858 -9.745821 11.246591 2.644321 0.000030 0.000047 -0.000001 -0.000002 -0.000001 8.077832 -0.486706 -3.806412 85.112456 -18.210652 17.290706 3.600033 0.000208 0.014565 85.786404 -15.528360 14.923560 2.100027 0.000192 0.007551 87.446509 -11.823049 11.771244 2.125508 -0.000016 0.007517 0.000001 0.000001 0.000001 -8.207786 -6.751667 -1.599560 -0.077001 -0.000003 0.000080 -0.000002 -44.370110 0.345938 0.153719 -0.000000 -0.000000 0.000000 -44.423679 -3.043532 -0.076700 0.000000 -0.000002 -0.000006 -8.728667 10.710559 -0.000009 -0.000000 -0.000000 -0.000001 -0.000679 9.278123 0.000000 -0.000000 -0.000000 8.207792 -6.751710 -1.599556 -0.074518 -0.000003 0.000081 -0.000002 -44.370014 0.346960 0.148822 0.000002 0.000000 -0.000001 -44.423664 -3.044403 -0.074314 0.000000 -0.000002 -0.000004 -8.728671 10.710558 0.000007 -0.000000 -0.000000 0.000000 -0.000680 9.278137 -0.000000 0.000000 -0.000001 
0.000006 104.270477 1.554256 0.000010 0.000003 -0.000113 -0.000005 10.181587 0.131522 0.000001 -0.000003 0.000084 -0.000000 9.893967 -1.470711 0.000001 0.000000 -0.000000 -0.000000 9.220802 -1.370642 0.000000 -0.000000 -0.000000 0.000001 16.740433 -2.049030 0.000000 -0.000000 -0.000000 0.000000 9.617859 1.685014 0.000000 0.000000 0.000000 0.000002 22.037384 7.501101 0.000000 -0.000000 0.000000 -4.569968 11.014880 -2.160881 0.000008 0.000001 -0.000038 -10.592884 -0.524727 -2.231957 72.185435 19.122660 -14.001539 -27.841528 0.000000 0.000562 -55.031285 114.373089 77.868302 -28.328815 0.000019 0.000021 -0.000320 -0.000045 0.000008 -2.464427 -1.573924 2.682381 -31.723469 -150.942058 22.028779 -3.215239 -1.872514 1.924629 151.081571 34.499378 27.711785 -2.654955 -1.527875 1.513062 149.207340 26.782920 -34.482449 -2.018841 -1.152002 1.108055 -0.000004 -0.000004 -0.000001 -9.108390 -0.517563 2.260159 107.147930 17.173394 -23.191147 -3.700080 0.000304 0.001558 104.130981 13.546344 -17.297365 -2.850073 0.000370 -0.000225 103.658578 10.134384 -12.870199 -2.772160 -0.000018 -0.000022 0.000000 -0.000000 0.000002 -9.532607 0.000262 0.000311 105.194066 16.907520 -22.185764 -3.700053 0.000328 0.004024 105.666701 11.671020 -15.231358 -2.950063 0.000347 -0.001737 108.505779 10.376692 -14.369519 -2.946626 0.000014 -0.000157 -0.000000 0.000001 0.000000 -9.103707 -0.042770 -1.864820 104.743253 18.233646 -23.460423 -3.379336 0.000329 -0.000748 105.850331 9.139143 -12.098788 -2.889773 0.000360 0.000694 111.565300 6.375454 -9.430580 -2.638807 -0.000019 0.000943 0.000001 0.000001 0.000002 -8.076777 -0.486397 -3.805959 99.110088 20.120807 -23.334455 -3.600049 0.000284 -0.003464 102.855470 9.370509 -11.284878 -2.100003 0.000320 -0.005417 106.361967 4.988481 -6.369666 -2.115758 -0.000027 -0.003678 0.000000 -0.000001 -0.000004 4.570446 11.014691 -2.160851 -0.000018 0.000010 -0.000021 10.592358 -0.524543 -2.232284 68.508676 9.546107 -6.508781 27.841835 0.000092 -0.000219 104.403458 -66.989170 80.940173 28.328825 -0.000029 0.000020 0.000019 -0.000089 -0.000000 2.466209 -1.576092 2.681852 3.960421 159.904742 -87.267374 3.217838 -1.871760 1.916390 164.021761 -27.358845 19.092998 2.656101 -1.528636 1.514473 143.704994 -26.670014 47.944014 2.020899 -1.154064 1.115144 -0.000002 0.000006 0.000006 9.109376 -0.517839 2.259747 95.548001 -18.701661 20.553533 3.700049 0.000184 -0.000467 94.200801 -11.594822 12.488863 2.850060 0.000234 0.000201 92.751606 -8.769442 9.197922 2.774879 -0.000033 -0.000012 -0.000000 0.000001 0.000000 9.533472 0.000232 -0.000091 95.393810 -17.475770 19.163045 3.700052 0.000220 -0.000379 97.478684 -9.610156 10.943550 2.950045 0.000239 -0.000199 98.030406 -9.402139 10.817113 2.952874 -0.000014 0.000069 0.000002 -0.000002 -0.000000 9.104588 -0.042819 -1.865223 95.836973 -16.654301 18.416611 3.150066 0.000226 -0.000070 100.126680 -12.211036 14.563997 2.950021 0.000222 -0.000064 100.648336 -10.275996 12.375209 2.644333 0.000048 0.000056 0.000002 -0.000001 -0.000000 8.077826 -0.486698 -3.806381 89.266126 -18.468377 18.826344 3.600015 0.000207 0.014567 87.645097 -16.992225 16.824745 2.100039 0.000206 0.007568 88.156548 -12.253138 12.336106 2.125490 -0.000012 0.007522 -0.000000 0.000003 -0.000001 -8.207786 -6.751667 -1.599560 -0.077001 -0.000003 0.000080 -0.000002 -44.370110 0.345938 0.153719 -0.000000 -0.000000 0.000000 -44.423679 -3.043532 -0.076700 0.000000 -0.000002 -0.000006 -8.728667 10.710559 -0.000009 -0.000000 -0.000000 -0.000001 -0.000679 9.278123 0.000000 -0.000000 -0.000000 8.207792 -6.751710 -1.599556 -0.074518 -0.000003 0.000081 -0.000002 -44.370014 0.346960 0.148822 0.000002 0.000000 -0.000001 -44.423664 -3.044403 -0.074314 0.000000 -0.000002 -0.000004 -8.728671 10.710558 0.000007 -0.000000 -0.000000 0.000000 -0.000680 9.278137 -0.000000 0.000000 -0.000001 
